<?xml version="1.0" ?><svg fill="none" height="1080" viewBox="0 0 1080 1080" width="1080" xmlns="http://www.w3.org/2000/svg"><path d="M157.5 296C157.5 220.613 218.613 159.5 294 159.5H781C856.387 159.5 917.5 220.613 917.5 296V783C917.5 858.387 856.387 919.5 781 919.5H294C218.613 919.5 157.5 858.387 157.5 783V296Z" stroke="url(#paint0_linear)" stroke-width="27"/><line stroke="#EAEAEA" stroke-opacity="0.7" stroke-width="27" x1="319.031" x2="761.031" y1="662.5" y2="663.523"/><line stroke="#EAEAEA" stroke-opacity="0.7" stroke-width="27" x1="315.031" x2="757.031" y1="418.5" y2="419.523"/><line stroke="#FF4141" stroke-linecap="round" stroke-linejoin="round" stroke-width="27" x1="761.54" x2="761.54" y1="661.887" y2="418.5"/><line stroke="#FF4141" stroke-linecap="round" stroke-linejoin="round" stroke-width="27" x1="316.54" x2="316.54" y1="661.887" y2="418.5"/><line stroke="#FF0101" stroke-linecap="round" stroke-linejoin="round" stroke-width="27" x1="317.796" x2="534.691" y1="419.912" y2="571.204"/><line stroke="#FF0101" stroke-linecap="round" stroke-linejoin="round" stroke-width="27" x1="541.388" x2="758.276" y1="571.955" y2="420.652"/><defs><linearGradient gradientUnits="userSpaceOnUse" id="paint0_linear" x1="241" x2="879.973" y1="933" y2="149.239"><stop stop-color="#FF4141" stop-opacity="0.7"/><stop offset="1" stop-color="#FF0101"/></linearGradient></defs></svg>