<svg width="539" height="213" viewBox="0 0 539 213" fill="none" xmlns="http://www.w3.org/2000/svg">
<path d="M54.4 56.8C61.7333 56.8 68.4667 58 74.6 60.4C78.7333 57.8667 83.0667 56.6 87.6 56.6C92.1333 56.6 95.7333 57.2 98.4 58.4L91.2 114.8C101.067 107.2 108.533 100.267 113.6 94L119.4 106.2C111.8 114.2 101.667 122.733 89 131.8L83.6 173.6C82.1333 186.133 78 195.733 71.2 202.4C64.5333 209.2 55.8667 212.6 45.2 212.6C39.0667 212.6 33.0667 210.6 27.2 206.6C21.0667 202.333 18 195.467 18 186C18 174.4 23.5333 163.8 34.6 154.2C25.1333 153.533 17 149.6 10.2 142.4C3.4 135.2 2.38419e-07 125.8 2.38419e-07 114.2C2.38419e-07 96.7333 5.13333 82.8 15.4 72.4C25.6667 62 38.6667 56.8 54.4 56.8ZM57.4 72.4C48.8667 72.4 42.0667 75.6667 37 82.2C32.0667 88.6 29.1333 98.2 28.2 111C28.0667 112.2 28 113.333 28 114.4C28 120.933 29.5333 126.133 32.6 130C35.8 133.867 39.8667 135.8 44.8 135.8C53.2 135.8 59.5333 129.933 63.8 118.2L68.8 74.8C64.6667 73.2 60.8667 72.4 57.4 72.4ZM33.4 183C33.4 186.6 34.4 189.4 36.4 191.4C38.5333 193.533 40.9333 194.6 43.6 194.6C51.0667 194.6 55.4 189.867 56.6 180.4L60 150.4C42.2667 160.933 33.4 171.8 33.4 183ZM182.245 117.2C178.112 128 172.112 136.867 164.245 143.8C156.512 150.6 147.645 154 137.645 154C127.645 154 120.112 150.733 115.045 144.2C110.112 137.533 107.645 129.933 107.645 121.4C107.645 119.667 107.712 117.933 107.845 116.2L114.645 59.2C118.912 57.6 123.445 56.8 128.245 56.8C137.045 56.8 141.445 60.0667 141.445 66.6C141.445 66.8667 140.312 75.8 138.045 93.4C135.912 110.867 134.845 121 134.845 123.8C134.845 131.4 138.512 135.2 145.845 135.2C152.112 135.2 157.379 131.667 161.645 124.6C169.112 111.8 173.045 97.3333 173.445 81.2H171.645C166.045 81.2 161.779 79.9333 158.845 77.4C155.512 74.4667 153.845 70.9333 153.845 66.8C153.845 62.6667 155.112 59.3333 157.645 56.8C160.712 54.1333 164.379 52.8 168.645 52.8C178.779 52.8 185.112 58.0667 187.645 68.6C191.645 68.0667 194.512 67.5333 196.245 67V78.4L188.845 79.6V83C188.712 95 186.512 106.4 182.245 117.2ZM165.245 66.8C165.245 69.0667 167.179 70.2 171.045 70.2C171.445 70.2 171.845 70.2 172.245 70.2C171.312 66.6 169.912 64.8 168.045 64.8C166.179 64.8 165.245 65.4667 165.245 66.8ZM286.866 154C274.599 154 266.466 149.733 262.466 141.2C255.532 149.867 246.599 154.2 235.666 154.2C224.866 154.2 215.732 150.533 208.266 143.2C200.932 135.867 197.266 126.2 197.266 114.2C197.266 96.7333 202.399 82.8 212.666 72.4C222.932 62 235.932 56.8 251.666 56.8C252.066 56.8 252.466 56.8 252.866 56.8C259.532 56.8 265.666 57.9333 271.266 60.2C274.866 57.9333 279.199 56.8 284.266 56.8C289.466 56.8 293.199 57.4667 295.466 58.8C294.266 68.6667 292.999 78.4 291.666 88C290.332 97.4667 289.399 104.2 288.866 108.2C287.666 117.267 287.066 123.8 287.066 127.8C287.066 133.133 289.199 135.8 293.466 135.8C296.799 135.8 300.332 133.6 304.066 129.2C307.799 124.667 311.066 117.6 313.866 108C317.732 111.467 320.399 115.333 321.866 119.6C317.999 132.267 312.799 141.2 306.266 146.4C299.732 151.467 293.266 154 286.866 154ZM254.666 72.4C246.132 72.4 239.332 75.6667 234.266 82.2C229.332 88.6 226.399 98.2 225.466 111C225.332 112.2 225.266 113.333 225.266 114.4C225.266 120.933 226.799 126.133 229.866 130C233.066 133.867 237.132 135.8 242.066 135.8C250.466 135.8 256.799 129.867 261.066 118L265.866 74.8C261.999 73.2 258.266 72.4 254.666 72.4ZM334.236 154.4C326.103 154.4 319.703 152.133 315.036 147.6C310.369 142.933 308.036 136.6 308.036 128.6C308.036 126.467 311.636 94.8 318.836 33.6C320.703 17.8667 325.703 7.93333 333.836 3.79999C337.569 1.79999 342.036 0.799993 347.236 0.799993C364.836 0.799993 373.636 8.93332 373.636 25.2C373.636 26.5333 373.569 27.9333 373.436 29.4C372.103 47.2667 360.903 65.4667 339.836 84C339.169 90.5333 338.436 96.8667 337.636 103C336.036 116.733 335.236 124.333 335.236 125.8C335.236 132.733 338.236 136.2 344.236 136.2C350.769 136.2 356.836 132.467 362.436 125C368.169 117.4 372.569 107.733 375.636 96C376.836 96.4 378.503 97.5333 380.636 99.4C382.769 101.133 384.236 102.667 385.036 104C382.903 115.067 378.103 125.667 370.636 135.8C366.903 141 362.169 145.267 356.436 148.6C349.903 152.467 342.503 154.4 334.236 154.4ZM342.036 64C354.303 50.5333 360.436 38.4667 360.436 27.8C360.436 21.4 358.036 18.2 353.236 18.2C350.169 18.4667 348.103 20.4667 347.036 24.2C346.103 27.9333 345.169 34 344.236 42.4C343.436 50.8 342.903 56 342.636 58L342.036 64ZM383.769 5.79999C386.835 2.59999 390.569 0.99999 394.969 0.99999C399.369 0.99999 403.102 2.59999 406.169 5.79999C409.369 8.86665 410.969 12.6 410.969 17C410.969 21.4 409.369 25.1333 406.169 28.2C403.102 31.2667 399.369 32.8 394.969 32.8C390.569 32.8 386.835 31.2667 383.769 28.2C380.702 25.1333 379.169 21.4 379.169 17C379.169 12.6 380.702 8.86665 383.769 5.79999ZM375.569 64.4C376.902 62 379.435 60.2 383.169 59C386.902 57.6667 390.569 57 394.169 57C397.902 57 401.169 57.4667 403.969 58.4C398.769 98.5333 396.169 118.8 396.169 119.2C395.502 121.867 395.169 124.133 395.169 126C395.169 127.733 395.302 129.267 395.569 130.6C396.102 134.067 398.502 135.8 402.769 135.8C407.169 135.8 411.169 133 414.769 127.4C418.502 121.667 421.302 115.2 423.169 108C424.102 108.533 425.569 110.133 427.569 112.8C429.569 115.467 430.769 117.467 431.169 118.8C428.502 129.467 423.969 138.067 417.569 144.6C411.169 151.133 403.502 154.4 394.569 154.4C385.635 154.4 378.969 152.2 374.569 147.8C370.302 143.4 368.169 137.733 368.169 130.8C368.169 129.333 368.235 127.8 368.369 126.2L375.569 64.4ZM491.258 8.8C492.191 6.53333 494.258 4.66666 497.458 3.2C500.791 1.59999 504.724 0.799993 509.258 0.799993C513.924 0.799993 517.391 1.46666 519.658 2.79999C518.324 13.2 516.191 29.5333 513.258 51.8C507.124 98.3333 504.058 124 504.058 128.8C504.058 133.467 506.058 135.8 510.058 135.8C513.524 135.8 517.124 133.667 520.858 129.4C524.591 125 527.991 117.867 531.058 108C534.791 111.6 537.391 115.533 538.858 119.8C534.058 135.667 526.524 145.933 516.258 150.6C511.591 152.867 507.191 154 503.058 154C491.191 154 483.258 149.733 479.258 141.2C472.324 149.867 463.458 154.2 452.658 154.2C441.858 154.2 432.724 150.533 425.258 143.2C417.924 135.867 414.258 126.2 414.258 114.2C414.258 96.7333 419.391 82.8 429.658 72.4C439.924 62 452.924 56.8 468.658 56.8C469.058 56.8 469.458 56.8 469.858 56.8C475.324 56.8 480.458 57.6 485.258 59.2L491.258 8.8ZM471.658 72.4C463.124 72.4 456.324 75.6667 451.258 82.2C446.324 88.6 443.391 98.2 442.458 111C442.324 112.2 442.258 113.333 442.258 114.4C442.258 120.933 443.791 126.133 446.858 130C450.058 133.867 454.124 135.8 459.058 135.8C467.458 135.8 473.791 129.867 478.058 118L483.258 75C478.858 73.2667 474.991 72.4 471.658 72.4Z" fill="url(#paint0_radial_218_495)"/>
<defs>
<radialGradient id="paint0_radial_218_495" cx="0" cy="0" r="1" gradientUnits="userSpaceOnUse" gradientTransform="translate(-6 -50) rotate(21.1557) scale(426.707 757.525)">
<stop stop-color="#FF33CC"/>
<stop offset="1" stop-color="#02A5FF"/>
</radialGradient>
</defs>
</svg>
