<svg width="165" height="43" viewBox="0 0 165 43" fill="none" xmlns="http://www.w3.org/2000/svg">
<path d="M19.68 9.12V28.8L22.56 29.52V30H15.84V27.12C15.488 27.792 15.04 28.4 14.496 28.944C14.048 29.392 13.472 29.792 12.768 30.144C12.096 30.528 11.28 30.72 10.32 30.72C9.36 30.72 8.464 30.544 7.632 30.192C6.832 29.84 6.128 29.36 5.52 28.752C4.912 28.112 4.432 27.36 4.08 26.496C3.76 25.6 3.6 24.608 3.6 23.52V9.12L0.72 8.4V7.92H10.08V8.4L7.44 9.12V23.52C7.44 25.792 7.792 27.408 8.496 28.368C9.232 29.296 10.08 29.76 11.04 29.76C11.808 29.76 12.48 29.536 13.056 29.088C13.664 28.64 14.176 28.144 14.592 27.6C15.072 26.992 15.488 26.272 15.84 25.44V9.12L13.2 8.4V7.92H22.56V8.4L19.68 9.12ZM32.6344 28.8L35.5144 29.52V30H25.9144V29.52L28.7944 28.8V9.12L25.9144 8.4V7.92H32.6344V13.68C33.0504 12.496 33.5464 11.424 34.1224 10.464C34.6344 9.632 35.2584 8.88 35.9944 8.208C36.7304 7.536 37.6104 7.2 38.6344 7.2C38.9864 7.2 39.3224 7.232 39.6424 7.296C39.9624 7.328 40.2504 7.376 40.5064 7.44C40.7944 7.536 41.0504 7.616 41.2744 7.68L39.8344 11.28C39.6424 11.184 39.4344 11.072 39.2104 10.944C39.0184 10.848 38.7784 10.768 38.4904 10.704C38.2344 10.608 37.9624 10.56 37.6744 10.56C36.8424 10.56 36.1064 10.784 35.4664 11.232C34.8264 11.68 34.2984 12.176 33.8824 12.72C33.3704 13.36 32.9544 14.08 32.6344 14.88V28.8ZM47.5425 18.96C47.5425 21.008 47.6865 22.72 47.9745 24.096C48.2945 25.472 48.6945 26.592 49.1745 27.456C49.6865 28.288 50.2465 28.88 50.8545 29.232C51.4945 29.584 52.1505 29.76 52.8225 29.76C53.6545 29.76 54.4385 29.6 55.1745 29.28C55.9105 28.96 56.5665 28.528 57.1425 27.984C57.7185 27.44 58.1825 26.784 58.5345 26.016C58.9185 25.248 59.1745 24.416 59.3025 23.52H60.0225C59.8945 24.544 59.6065 25.504 59.1585 26.4C58.7425 27.264 58.1985 28.016 57.5265 28.656C56.8545 29.296 56.0705 29.792 55.1745 30.144C54.3105 30.528 53.3665 30.72 52.3425 30.72C51.1265 30.72 49.9745 30.464 48.8865 29.952C47.7985 29.408 46.8225 28.64 45.9585 27.648C45.1265 26.624 44.4545 25.392 43.9425 23.952C43.4625 22.48 43.2225 20.816 43.2225 18.96C43.2225 17.04 43.4625 15.344 43.9425 13.872C44.4225 12.4 45.0465 11.184 45.8145 10.224C46.6145 9.232 47.5265 8.48 48.5505 7.968C49.6065 7.456 50.7105 7.2 51.8625 7.2C53.0145 7.2 54.1025 7.456 55.1265 7.968C56.1825 8.48 57.0945 9.232 57.8625 10.224C58.6625 11.184 59.3025 12.4 59.7825 13.872C60.2625 15.344 60.5025 17.04 60.5025 18.96H47.5425ZM51.8625 7.92C51.3825 7.92 50.9025 8.08 50.4225 8.4C49.9425 8.688 49.4945 9.216 49.0785 9.984C48.6625 10.752 48.3105 11.792 48.0225 13.104C47.7665 14.384 47.6065 16.016 47.5425 18H56.1825C56.1185 16.016 55.9425 14.384 55.6545 13.104C55.3985 11.792 55.0625 10.752 54.6465 9.984C54.2305 9.216 53.7825 8.688 53.3025 8.4C52.8225 8.08 52.3425 7.92 51.8625 7.92ZM66.9975 28.8V9.12L64.1175 8.4V7.92H70.8375V10.8C71.1575 10.16 71.5895 9.568 72.1335 9.024C72.5815 8.576 73.1575 8.16 73.8615 7.776C74.5655 7.392 75.3975 7.2 76.3575 7.2C77.3175 7.2 78.1975 7.376 78.9975 7.728C79.8295 8.08 80.5495 8.576 81.1575 9.216C81.7655 9.824 82.2295 10.576 82.5495 11.472C82.9015 12.336 83.0775 13.312 83.0775 14.4V28.8L85.9575 29.52V30H76.5975V29.52L79.2375 28.8V14.4C79.2375 12.128 78.8695 10.528 78.1335 9.6C77.4295 8.64 76.5975 8.16 75.6375 8.16C74.8375 8.16 74.1495 8.384 73.5735 8.832C72.9975 9.28 72.5015 9.776 72.0855 10.32C71.6055 10.96 71.1895 11.68 70.8375 12.48V28.8L73.4775 29.52V30H64.1175V29.52L66.9975 28.8ZM97.7006 22.8C98.2446 22.8 98.7726 22.672 99.2846 22.416C99.7966 22.128 100.261 21.68 100.677 21.072C101.093 20.464 101.413 19.696 101.637 18.768C101.893 17.808 102.021 16.672 102.021 15.36C102.021 14.048 101.893 12.928 101.637 12C101.413 11.04 101.093 10.272 100.677 9.696C100.261 9.088 99.7966 8.64 99.2846 8.352C98.7726 8.064 98.2446 7.92 97.7006 7.92C97.1566 7.92 96.6286 8.064 96.1166 8.352C95.6046 8.64 95.1406 9.088 94.7246 9.696C94.3086 10.272 93.9726 11.04 93.7166 12C93.4926 12.928 93.3806 14.048 93.3806 15.36C93.3806 16.672 93.4926 17.808 93.7166 18.768C93.9726 19.696 94.3086 20.464 94.7246 21.072C95.1406 21.68 95.6046 22.128 96.1166 22.416C96.6286 22.672 97.1566 22.8 97.7006 22.8ZM98.6606 41.328C99.8446 41.328 100.917 41.152 101.877 40.8C102.837 40.48 103.637 40.032 104.277 39.456C104.949 38.88 105.461 38.208 105.813 37.44C106.165 36.672 106.341 35.872 106.341 35.04C106.341 32 104.821 30.48 101.781 30.48H94.1006C92.2766 30.48 90.9326 30.112 90.0686 29.376C89.2366 28.64 88.8206 27.728 88.8206 26.64C88.8206 25.904 88.9966 25.264 89.3486 24.72C89.7326 24.144 90.1486 23.632 90.5966 23.184C91.1406 22.704 91.7486 22.256 92.4206 21.84C91.7806 21.424 91.2206 20.912 90.7406 20.304C90.2926 19.76 89.8926 19.088 89.5406 18.288C89.2206 17.488 89.0606 16.512 89.0606 15.36C89.0606 14.208 89.2686 13.136 89.6846 12.144C90.1326 11.152 90.7406 10.288 91.5086 9.552C92.2766 8.816 93.1886 8.24 94.2446 7.824C95.3006 7.408 96.4526 7.2 97.7006 7.2C98.2446 7.2 98.7726 7.248 99.2846 7.344C99.7966 7.44 100.261 7.552 100.677 7.68C101.157 7.808 101.605 7.968 102.021 8.16C102.277 7.808 102.581 7.488 102.933 7.2C103.253 6.944 103.653 6.72 104.133 6.528C104.613 6.336 105.189 6.24 105.861 6.24C106.949 6.24 107.797 6.448 108.405 6.864C109.045 7.248 109.541 7.68 109.893 8.16C110.277 8.736 110.533 9.376 110.661 10.08L107.061 10.8C106.965 10.16 106.821 9.568 106.629 9.024C106.469 8.576 106.245 8.16 105.957 7.776C105.669 7.392 105.317 7.2 104.901 7.2C104.549 7.2 104.229 7.28 103.941 7.44C103.653 7.6 103.429 7.76 103.269 7.92C103.045 8.144 102.869 8.384 102.741 8.64C103.957 9.376 104.853 10.32 105.429 11.472C106.037 12.624 106.341 13.92 106.341 15.36C106.341 16.512 106.117 17.584 105.669 18.576C105.253 19.568 104.661 20.432 103.893 21.168C103.125 21.904 102.213 22.48 101.157 22.896C100.101 23.312 98.9486 23.52 97.7006 23.52C97.0286 23.52 96.4206 23.472 95.8766 23.376C95.3326 23.248 94.8526 23.104 94.4366 22.944C93.9566 22.784 93.5246 22.576 93.1406 22.32C92.6926 22.608 92.2926 22.912 91.9406 23.232C91.6206 23.488 91.3326 23.792 91.0766 24.144C90.8526 24.496 90.7406 24.848 90.7406 25.2C90.7406 25.68 90.9646 26.08 91.4126 26.4C91.8606 26.688 92.7566 26.832 94.1006 26.832H101.781C103.701 26.832 105.253 27.456 106.437 28.704C107.653 29.92 108.261 31.552 108.261 33.6C108.261 34.816 108.021 35.936 107.541 36.96C107.093 38.016 106.453 38.928 105.621 39.696C104.789 40.496 103.781 41.12 102.597 41.568C101.413 42.016 100.101 42.24 98.6606 42.24C96.8686 42.24 95.3006 42.032 93.9566 41.616C92.6446 41.232 91.5566 40.688 90.6926 39.984C89.8286 39.312 89.1726 38.512 88.7246 37.584C88.3086 36.656 88.1006 35.648 88.1006 34.56C88.1006 34.144 88.1486 33.76 88.2446 33.408C88.3406 33.088 88.4526 32.816 88.5806 32.592C88.7086 32.336 88.8686 32.112 89.0606 31.92L92.6606 33.36C92.5646 33.584 92.4846 33.824 92.4206 34.08C92.2606 34.56 92.1806 35.04 92.1806 35.52C92.1806 37.216 92.7406 38.608 93.8606 39.696C95.0126 40.784 96.6126 41.328 98.6606 41.328ZM127.238 15.12V17.04H111.878V15.12H127.238ZM148.352 9.12V28.8L151.232 29.52V30H144.512V27.12C144.16 27.792 143.712 28.4 143.168 28.944C142.72 29.392 142.144 29.792 141.44 30.144C140.768 30.528 139.952 30.72 138.992 30.72C138.032 30.72 137.136 30.544 136.304 30.192C135.504 29.84 134.8 29.36 134.192 28.752C133.584 28.112 133.104 27.36 132.752 26.496C132.432 25.6 132.272 24.608 132.272 23.52V9.12L129.392 8.4V7.92H138.752V8.4L136.112 9.12V23.52C136.112 25.792 136.464 27.408 137.168 28.368C137.904 29.296 138.752 29.76 139.712 29.76C140.48 29.76 141.152 29.536 141.728 29.088C142.336 28.64 142.848 28.144 143.264 27.6C143.744 26.992 144.16 26.272 144.512 25.44V9.12L141.872 8.4V7.92H151.232V8.4L148.352 9.12ZM157.466 28.8V9.12L154.586 8.4V7.92H161.306V28.8L164.186 29.52V30H154.586V29.52L157.466 28.8ZM161.546 2.4C161.546 3.008 161.29 3.568 160.778 4.08C160.298 4.56 159.754 4.8 159.146 4.8C158.538 4.8 157.978 4.56 157.466 4.08C156.986 3.568 156.746 3.008 156.746 2.4C156.746 1.792 156.986 1.248 157.466 0.767999C157.978 0.256 158.538 0 159.146 0C159.754 0 160.298 0.256 160.778 0.767999C161.29 1.248 161.546 1.792 161.546 2.4Z" fill="#060839"/>
</svg>
