<svg width="111" height="37" viewBox="0 0 111 37" fill="none" xmlns="http://www.w3.org/2000/svg">
<path d="M19.68 3.12V22.8L22.56 23.52V24H15.84V21.12C15.488 21.792 15.04 22.4 14.496 22.944C14.048 23.392 13.472 23.792 12.768 24.144C12.096 24.528 11.28 24.72 10.32 24.72C9.36 24.72 8.464 24.544 7.632 24.192C6.832 23.84 6.128 23.36 5.52 22.752C4.912 22.112 4.432 21.36 4.08 20.496C3.76 19.6 3.6 18.608 3.6 17.52V3.12L0.72 2.4V1.92H10.08V2.4L7.44 3.12V17.52C7.44 19.792 7.792 21.408 8.496 22.368C9.232 23.296 10.08 23.76 11.04 23.76C11.808 23.76 12.48 23.536 13.056 23.088C13.664 22.64 14.176 22.144 14.592 21.6C15.072 20.992 15.488 20.272 15.84 19.44V3.12L13.2 2.4V1.92H22.56V2.4L19.68 3.12ZM32.6344 22.8L35.5144 23.52V24H25.9144V23.52L28.7944 22.8V3.12L25.9144 2.4V1.92H32.6344V7.68C33.0504 6.496 33.5464 5.424 34.1224 4.464C34.6344 3.632 35.2584 2.88 35.9944 2.208C36.7304 1.536 37.6104 1.2 38.6344 1.2C38.9864 1.2 39.3224 1.232 39.6424 1.296C39.9624 1.328 40.2504 1.376 40.5064 1.44C40.7944 1.536 41.0504 1.616 41.2744 1.68L39.8344 5.28C39.6424 5.184 39.4344 5.072 39.2104 4.944C39.0184 4.848 38.7784 4.768 38.4904 4.704C38.2344 4.608 37.9624 4.56 37.6744 4.56C36.8424 4.56 36.1064 4.784 35.4664 5.232C34.8264 5.68 34.2984 6.176 33.8824 6.72C33.3704 7.36 32.9544 8.08 32.6344 8.88V22.8ZM47.5425 12.96C47.5425 15.008 47.6865 16.72 47.9745 18.096C48.2945 19.472 48.6945 20.592 49.1745 21.456C49.6865 22.288 50.2465 22.88 50.8545 23.232C51.4945 23.584 52.1505 23.76 52.8225 23.76C53.6545 23.76 54.4385 23.6 55.1745 23.28C55.9105 22.96 56.5665 22.528 57.1425 21.984C57.7185 21.44 58.1825 20.784 58.5345 20.016C58.9185 19.248 59.1745 18.416 59.3025 17.52H60.0225C59.8945 18.544 59.6065 19.504 59.1585 20.4C58.7425 21.264 58.1985 22.016 57.5265 22.656C56.8545 23.296 56.0705 23.792 55.1745 24.144C54.3105 24.528 53.3665 24.72 52.3425 24.72C51.1265 24.72 49.9745 24.464 48.8865 23.952C47.7985 23.408 46.8225 22.64 45.9585 21.648C45.1265 20.624 44.4545 19.392 43.9425 17.952C43.4625 16.48 43.2225 14.816 43.2225 12.96C43.2225 11.04 43.4625 9.344 43.9425 7.872C44.4225 6.4 45.0465 5.184 45.8145 4.224C46.6145 3.232 47.5265 2.48 48.5505 1.968C49.6065 1.456 50.7105 1.2 51.8625 1.2C53.0145 1.2 54.1025 1.456 55.1265 1.968C56.1825 2.48 57.0945 3.232 57.8625 4.224C58.6625 5.184 59.3025 6.4 59.7825 7.872C60.2625 9.344 60.5025 11.04 60.5025 12.96H47.5425ZM51.8625 1.92C51.3825 1.92 50.9025 2.08 50.4225 2.4C49.9425 2.688 49.4945 3.216 49.0785 3.984C48.6625 4.752 48.3105 5.792 48.0225 7.104C47.7665 8.384 47.6065 10.016 47.5425 12H56.1825C56.1185 10.016 55.9425 8.384 55.6545 7.104C55.3985 5.792 55.0625 4.752 54.6465 3.984C54.2305 3.216 53.7825 2.688 53.3025 2.4C52.8225 2.08 52.3425 1.92 51.8625 1.92ZM66.9975 22.8V3.12L64.1175 2.4V1.92H70.8375V4.8C71.1575 4.16 71.5895 3.568 72.1335 3.024C72.5815 2.576 73.1575 2.16 73.8615 1.776C74.5655 1.392 75.3975 1.2 76.3575 1.2C77.3175 1.2 78.1975 1.376 78.9975 1.728C79.8295 2.08 80.5495 2.576 81.1575 3.216C81.7655 3.824 82.2295 4.576 82.5495 5.472C82.9015 6.336 83.0775 7.312 83.0775 8.4V22.8L85.9575 23.52V24H76.5975V23.52L79.2375 22.8V8.4C79.2375 6.128 78.8695 4.528 78.1335 3.6C77.4295 2.64 76.5975 2.16 75.6375 2.16C74.8375 2.16 74.1495 2.384 73.5735 2.832C72.9975 3.28 72.5015 3.776 72.0855 4.32C71.6055 4.96 71.1895 5.68 70.8375 6.48V22.8L73.4775 23.52V24H64.1175V23.52L66.9975 22.8ZM97.7006 16.8C98.2446 16.8 98.7726 16.672 99.2846 16.416C99.7966 16.128 100.261 15.68 100.677 15.072C101.093 14.464 101.413 13.696 101.637 12.768C101.893 11.808 102.021 10.672 102.021 9.36C102.021 8.048 101.893 6.928 101.637 6C101.413 5.04 101.093 4.272 100.677 3.696C100.261 3.088 99.7966 2.64 99.2846 2.352C98.7726 2.064 98.2446 1.92 97.7006 1.92C97.1566 1.92 96.6286 2.064 96.1166 2.352C95.6046 2.64 95.1406 3.088 94.7246 3.696C94.3086 4.272 93.9726 5.04 93.7166 6C93.4926 6.928 93.3806 8.048 93.3806 9.36C93.3806 10.672 93.4926 11.808 93.7166 12.768C93.9726 13.696 94.3086 14.464 94.7246 15.072C95.1406 15.68 95.6046 16.128 96.1166 16.416C96.6286 16.672 97.1566 16.8 97.7006 16.8ZM98.6606 35.328C99.8446 35.328 100.917 35.152 101.877 34.8C102.837 34.48 103.637 34.032 104.277 33.456C104.949 32.88 105.461 32.208 105.813 31.44C106.165 30.672 106.341 29.872 106.341 29.04C106.341 26 104.821 24.48 101.781 24.48H94.1006C92.2766 24.48 90.9326 24.112 90.0686 23.376C89.2366 22.64 88.8206 21.728 88.8206 20.64C88.8206 19.904 88.9966 19.264 89.3486 18.72C89.7326 18.144 90.1486 17.632 90.5966 17.184C91.1406 16.704 91.7486 16.256 92.4206 15.84C91.7806 15.424 91.2206 14.912 90.7406 14.304C90.2926 13.76 89.8926 13.088 89.5406 12.288C89.2206 11.488 89.0606 10.512 89.0606 9.36C89.0606 8.208 89.2686 7.136 89.6846 6.144C90.1326 5.152 90.7406 4.288 91.5086 3.552C92.2766 2.816 93.1886 2.24 94.2446 1.824C95.3006 1.408 96.4526 1.2 97.7006 1.2C98.2446 1.2 98.7726 1.248 99.2846 1.344C99.7966 1.44 100.261 1.552 100.677 1.68C101.157 1.808 101.605 1.968 102.021 2.16C102.277 1.808 102.581 1.488 102.933 1.2C103.253 0.943999 103.653 0.719999 104.133 0.527999C104.613 0.335999 105.189 0.239998 105.861 0.239998C106.949 0.239998 107.797 0.447999 108.405 0.863999C109.045 1.248 109.541 1.68 109.893 2.16C110.277 2.736 110.533 3.376 110.661 4.08L107.061 4.8C106.965 4.16 106.821 3.568 106.629 3.024C106.469 2.576 106.245 2.16 105.957 1.776C105.669 1.392 105.317 1.2 104.901 1.2C104.549 1.2 104.229 1.28 103.941 1.44C103.653 1.6 103.429 1.76 103.269 1.92C103.045 2.144 102.869 2.384 102.741 2.64C103.957 3.376 104.853 4.32 105.429 5.472C106.037 6.624 106.341 7.92 106.341 9.36C106.341 10.512 106.117 11.584 105.669 12.576C105.253 13.568 104.661 14.432 103.893 15.168C103.125 15.904 102.213 16.48 101.157 16.896C100.101 17.312 98.9486 17.52 97.7006 17.52C97.0286 17.52 96.4206 17.472 95.8766 17.376C95.3326 17.248 94.8526 17.104 94.4366 16.944C93.9566 16.784 93.5246 16.576 93.1406 16.32C92.6926 16.608 92.2926 16.912 91.9406 17.232C91.6206 17.488 91.3326 17.792 91.0766 18.144C90.8526 18.496 90.7406 18.848 90.7406 19.2C90.7406 19.68 90.9646 20.08 91.4126 20.4C91.8606 20.688 92.7566 20.832 94.1006 20.832H101.781C103.701 20.832 105.253 21.456 106.437 22.704C107.653 23.92 108.261 25.552 108.261 27.6C108.261 28.816 108.021 29.936 107.541 30.96C107.093 32.016 106.453 32.928 105.621 33.696C104.789 34.496 103.781 35.12 102.597 35.568C101.413 36.016 100.101 36.24 98.6606 36.24C96.8686 36.24 95.3006 36.032 93.9566 35.616C92.6446 35.232 91.5566 34.688 90.6926 33.984C89.8286 33.312 89.1726 32.512 88.7246 31.584C88.3086 30.656 88.1006 29.648 88.1006 28.56C88.1006 28.144 88.1486 27.76 88.2446 27.408C88.3406 27.088 88.4526 26.816 88.5806 26.592C88.7086 26.336 88.8686 26.112 89.0606 25.92L92.6606 27.36C92.5646 27.584 92.4846 27.824 92.4206 28.08C92.2606 28.56 92.1806 29.04 92.1806 29.52C92.1806 31.216 92.7406 32.608 93.8606 33.696C95.0126 34.784 96.6126 35.328 98.6606 35.328Z" fill="#060839"/>
</svg>
